<svg xmlns="http://www.w3.org/2000/svg" viewBox="0 0 229.31 37"><defs><style>.cls-1{fill:#231815;}.cls-2{fill:#0092c9;}.cls-3{fill:#66c166;}.cls-4{fill:#c2e6c2;}</style></defs><title>アセット 1</title><g id="レイヤー_2" data-name="レイヤー 2"><g id="design"><path class="cls-1" d="M45.84,36.73V20H57V23H49.31v4.25h7.12v3H49.31v6.41Z"/><path class="cls-1" d="M59.32,30V20h3.49v9.66c0,2.86,1.25,4.22,3.46,4.22s3.47-1.36,3.47-4.22V20h3.49V30c0,4.61-2.76,7-7,7S59.32,34.6,59.32,30Z"/><path class="cls-1" d="M75.19,20H89.48V23h-5.4V36.73H80.56V23H75.19Z"/><path class="cls-1" d="M91.42,30V20h3.49v9.66c0,2.86,1.25,4.22,3.46,4.22s3.47-1.36,3.47-4.22V20h3.49V30c0,4.61-2.76,7-7,7S91.42,34.6,91.42,30Z"/><path class="cls-1" d="M111.68,30.48v6.25h-3.46V20h6.9c3.51,0,5.86,1.88,5.86,5.32a4.73,4.73,0,0,1-3.82,4.94l4.42,6.49h-3.93l-4.14-6.25Zm0-2.86h3.22c1.74,0,2.64-.93,2.64-2.32S116.64,23,114.9,23h-3.22Z"/><path class="cls-1" d="M135.33,20V23h-7.94v3.65h7.2v3h-7.2v4h7.94v3.08H124V20Z"/><path class="cls-1" d="M144.32,32.15A9.18,9.18,0,0,0,149.67,34c1.69,0,3-.52,3-1.83,0-1.09-.71-1.5-2-2l-2.46-.82c-2.48-.82-4.11-2.1-4.11-4.88,0-3.11,2.67-4.8,5.94-4.8A9.6,9.6,0,0,1,155.12,21v3.41a8.06,8.06,0,0,0-5-1.75c-1.5,0-2.64.52-2.64,1.67s.68,1.44,1.85,1.82l2.62.9c2.81,1,4.09,2.48,4.09,5,0,3.3-2.81,5-6.36,5a10.4,10.4,0,0,1-5.4-1.42Z"/><path class="cls-1" d="M162,30.92v5.81h-3.46V20h6.81c3.55,0,5.89,1.91,5.89,5.48s-2.34,5.46-5.89,5.46Zm3.14-8H162v5h3.14a2.37,2.37,0,0,0,2.67-2.49A2.36,2.36,0,0,0,165.11,23Z"/><path class="cls-1" d="M176.92,36.73h-3.49V20h3.49Z"/><path class="cls-1" d="M184,30.48v6.25h-3.46V20h6.9c3.51,0,5.86,1.88,5.86,5.32a4.73,4.73,0,0,1-3.82,4.94l4.42,6.49H190l-4.14-6.25Zm0-2.86h3.22c1.74,0,2.64-.93,2.64-2.32S189,23,187.26,23H184Z"/><path class="cls-1" d="M199.61,36.73h-3.49V20h3.49Z"/><path class="cls-1" d="M201.85,20h14.29V23h-5.4V36.73h-3.52V23h-5.37Z"/><path class="cls-1" d="M217.56,32.15A9.17,9.17,0,0,0,222.9,34c1.69,0,3-.52,3-1.83,0-1.09-.71-1.5-2-2l-2.45-.82c-2.48-.82-4.12-2.1-4.12-4.88,0-3.11,2.67-4.8,5.94-4.8A9.66,9.66,0,0,1,228.36,21v3.41a8.11,8.11,0,0,0-5-1.75c-1.5,0-2.64.52-2.64,1.67s.68,1.44,1.85,1.82l2.62.9c2.81,1,4.09,2.48,4.09,5,0,3.3-2.81,5-6.35,5a10.37,10.37,0,0,1-5.4-1.42Z"/><circle class="cls-2" cx="25.85" cy="26.02" r="6.67"/><path class="cls-3" d="M51.7,0C21.82,0,0,7.57,0,17.05a6.61,6.61,0,0,0,1.4,4.13,6.69,6.69,0,0,0,6.37,2.5C6.55,11.6,24.42,3.34,51.7,0Z"/><path class="cls-4" d="M38.5,21.9a32.44,32.44,0,0,1-8.69,3.72,11,11,0,0,1,.63,3.65,10.81,10.81,0,0,1-2.92,7.4v0s-.3-.17-.32-.17a10.85,10.85,0,0,1-5.27-9.3c0-.17,0-.34,0-.51h-.43A32.38,32.38,0,0,1,7.77,23.64a17.51,17.51,0,0,0,16.93,13h2.82a17.44,17.44,0,0,0,8.65-2.28A3.11,3.11,0,0,0,37,33.7a10.73,10.73,0,0,0,2.58-7A10.85,10.85,0,0,0,38.5,21.9Z"/></g></g></svg>