<svg xmlns="http://www.w3.org/2000/svg" width="429" height="106">
  <path fill-rule="evenodd" d="M428.608 29.109v2.976h-11.161V14.324h10.897v2.952h-7.345v4.104h6.241v2.977h-6.241v4.752h7.609zm-24.343.24c1.512 0 2.712-.72 3.672-1.752l1.872 2.208c-1.464 1.704-3.36 2.616-5.664 2.616-4.488 0-8.137-3.216-8.137-9.144 0-5.857 3.769-9.289 8.257-9.289 2.256 0 4.056 1.08 5.208 2.28l-1.872 2.256c-.888-.864-1.92-1.488-3.264-1.488-2.688 0-4.704 2.304-4.704 6.121 0 3.864 1.824 6.192 4.632 6.192zm-19.962-15.025h3.552v17.761h-3.552V14.324zm-16.788 17.761l-5.424-17.761h3.72l2.352 8.641c.552 1.968.912 3.744 1.488 5.736h.12c.552-1.992.96-3.768 1.512-5.736l2.305-8.641h3.6l-5.449 17.761h-4.224zm-14.247 0l-3.649-6.72h-2.472v6.72h-3.552V14.324h6.192c3.721 0 6.673 1.296 6.673 5.376 0 2.665-1.344 4.321-3.384 5.113l4.152 7.272h-3.96zm-3.817-14.953h-2.304v5.425h2.304c2.28 0 3.529-.961 3.529-2.857 0-1.92-1.249-2.568-3.529-2.568zm-25.291-2.808h10.897v2.952h-7.345v4.104h6.24v2.977h-6.24v4.752h7.609v2.976H324.16V14.324zm-11.373 7.896c2.16.889 3.576 2.257 3.576 4.825 0 2.904-2.424 5.376-6.529 5.376-2.376 0-4.752-.936-6.48-2.592l2.04-2.448c1.272 1.176 2.952 1.968 4.512 1.968 1.849 0 2.833-.792 2.833-2.04 0-1.32-1.08-1.728-2.665-2.4l-2.376-1.008c-1.8-.744-3.6-2.185-3.6-4.777 0-2.904 2.544-5.136 6.144-5.136 2.065 0 4.129.816 5.569 2.28l-1.8 2.232c-1.128-.936-2.304-1.464-3.769-1.464-1.56 0-2.568.696-2.568 1.872 0 1.272 1.272 1.728 2.785 2.328l2.328.984zm-5.154 72.212h.278c-.445-4.283-1.057-9.734-1.057-14.406V63.617h7.787v41.161h-8.343l-11.903-22.027-4.172-8.844h-.278c.389 4.45 1.001 9.623 1.001 14.351v16.52h-7.787V63.617h8.399l11.959 21.915 4.116 8.9zM283.187 22.22c2.16.889 3.576 2.257 3.576 4.825 0 2.904-2.424 5.376-6.529 5.376-2.376 0-4.752-.936-6.48-2.592l2.04-2.448c1.272 1.176 2.952 1.968 4.512 1.968 1.849 0 2.833-.792 2.833-2.04 0-1.32-1.08-1.728-2.665-2.4l-2.376-1.008c-1.8-.744-3.6-2.185-3.6-4.777 0-2.904 2.544-5.136 6.144-5.136 2.065 0 4.129.816 5.569 2.28l-1.8 2.232c-1.128-.936-2.304-1.464-3.769-1.464-1.56 0-2.568.696-2.568 1.872 0 1.272 1.272 1.728 2.784 2.328l2.329.984zM260.65 63.617h8.232v41.161h-8.232V63.617zm2.777-38.948c0-1.68.264-4.153.432-5.833h-.096l-1.44 4.177-2.736 7.464h-2.04l-2.761-7.464-1.416-4.177h-.096c.168 1.68.456 4.153.456 5.833v7.416h-3.192V14.324h3.936l3.025 8.305c.384 1.104.72 2.28 1.08 3.432h.12c.384-1.152.696-2.328 1.08-3.432l2.952-8.305h3.936v17.761h-3.24v-7.416zm-29.021 80.888c-11.236 0-19.746-7.454-19.746-21.193 0-13.572 8.788-21.526 19.746-21.526 5.952 0 10.068 2.559 12.738 5.284l-4.395 5.229c-2.002-1.947-4.338-3.449-8.065-3.449-6.841 0-11.625 5.34-11.625 14.184 0 8.955 4.116 14.351 12.181 14.351 2.003 0 4.005-.556 5.173-1.558v-8.121h-7.286v-6.73h14.629v18.578c-2.782 2.726-7.621 4.951-13.35 4.951zm2.95-76.208c1.512 0 2.712-.72 3.673-1.752l1.872 2.208c-1.464 1.704-3.361 2.616-5.665 2.616-4.488 0-8.136-3.216-8.136-9.144 0-5.857 3.768-9.289 8.256-9.289 2.256 0 4.057 1.08 5.209 2.28l-1.872 2.256c-.889-.864-1.921-1.488-3.265-1.488-2.688 0-4.704 2.304-4.704 6.121 0 3.864 1.824 6.192 4.632 6.192zm-28.712-7.129c2.16.889 3.577 2.257 3.577 4.825 0 2.904-2.425 5.376-6.529 5.376-2.376 0-4.752-.936-6.481-2.592l2.041-2.448c1.272 1.176 2.952 1.968 4.512 1.968 1.848 0 2.832-.792 2.832-2.04 0-1.32-1.08-1.728-2.664-2.4l-2.376-1.008c-1.8-.744-3.6-2.185-3.6-4.777 0-2.904 2.544-5.136 6.144-5.136 2.064 0 4.128.816 5.569 2.28l-1.801 2.232c-1.128-.936-2.304-1.464-3.768-1.464-1.56 0-2.568.696-2.568 1.872 0 1.272 1.272 1.728 2.784 2.328l2.328.984zm-19.247 9.865l-3.648-6.72h-2.472v6.72h-3.553V14.324h6.193c3.72 0 6.672 1.296 6.672 5.376 0 2.665-1.344 4.321-3.384 5.113l4.153 7.272h-3.961zm-3.816-14.953h-2.304v5.425h2.304c2.28 0 3.528-.961 3.528-2.857 0-1.92-1.248-2.568-3.528-2.568zm-25.292-2.808h10.897v2.952h-7.345v4.104h6.241v2.977h-6.241v4.752h7.609v2.976h-11.161V14.324zm-26.664 49.293h8.232v34.264h16.687v6.897h-24.919V63.617zm14.206-31.532h-3.552V17.276h-4.992v-2.952h13.585v2.952h-5.041v14.809zm-17.042-4.56h-5.76l-1.249 4.56h-3.6l5.689-17.761h4.176l5.713 17.761h-3.721l-1.248-4.56zm-1.296-4.704c-.552-1.849-1.032-3.889-1.56-5.809h-.096a128.31 128.31 0 01-1.512 5.809l-.528 1.944h4.224l-.528-1.944zm-21.071 6.528c1.512 0 2.712-.72 3.672-1.752l1.872 2.208c-1.464 1.704-3.36 2.616-5.664 2.616-4.489 0-8.137-3.216-8.137-9.144 0-5.857 3.768-9.289 8.257-9.289 2.256 0 4.056 1.08 5.208 2.28l-1.872 2.256c-.888-.864-1.92-1.488-3.264-1.488-2.688 0-4.705 2.304-4.705 6.121 0 3.864 1.825 6.192 4.633 6.192zm-34.95 5.569a3.453 3.453 0 01-3.794-.726 8.868 8.868 0 01-1.861-5.167 177.519 177.519 0 013.018-1.815 8.672 8.672 0 00.959 3.491 1.543 1.543 0 001.777.726 2.815 2.815 0 001.749-1.396c.471-.78.711-1.675.691-2.584a5.343 5.343 0 00-.466-2.234 14.482 14.482 0 00-1.918-2.793c-.113-.139-.649-.74-1.622-1.885a23.008 23.008 0 01-2.355-3.337 10.68 10.68 0 01-1.1-2.793 13.082 13.082 0 01-.381-3.17 7.117 7.117 0 011.509-4.971 3.438 3.438 0 013.935-.726 7.35 7.35 0 013.639 2.793 8.749 8.749 0 011.565 4.454 31.14 31.14 0 00-2.962.489 6.928 6.928 0 00-.662-2.947 2.603 2.603 0 00-1.622-1.396 1.418 1.418 0 00-1.566.461 3.258 3.258 0 00-.606 2.136 6.436 6.436 0 00.423 2.304 13.938 13.938 0 001.805 2.989c.198.265.522.656.988 1.187 1.41 1.578 2.383 2.792 3.088 3.812a8.327 8.327 0 011.157 2.276c.261.808.394 1.651.395 2.5a8.769 8.769 0 01-1.552 5.138 8.03 8.03 0 01-4.231 3.184zm-10.084 2.276c-1.523-4.887-3.032-10.124-4.555-15.653h-1.016v16.84a47.31 47.31 0 01-3.399.643V1.726c1.599.214 3.197.465 4.796.754a7.832 7.832 0 015.176 3.393 11.423 11.423 0 011.847 6.647c.052 1.76-.32 3.507-1.086 5.097a7.15 7.15 0 01-3.103 3.211 378.896 378.896 0 004.908 15.459 152.63 152.63 0 01-3.568.907zm-.635-24.576a6.936 6.936 0 00-1.085-4.19 4.627 4.627 0 00-3.301-1.801l-.55-.07v10.948h.423a4.255 4.255 0 003.357-1.229 5.186 5.186 0 001.156-3.658zm-9.858 32.131c0-.182-.113-.363-.155-.545l-.127-.545c0 .419.038.787.113 1.104v2.234l-.522-.028v-3.994h.564l.691 2.263c0 .083 0 .223.113.418l.169.699c0-.363-.084-.685-.112-.978-.029-.293 0-.544 0-.768v-1.62h.507v3.994h-.55l-.691-2.234zM41.697.748c3.009 0 6.013.172 9.012.517v4.524c-1.88-.139-3.761-.237-5.641-.293v11.367h5.641v4.524l-5.641.07v13.782c1.88-.084 3.761-.214 5.641-.391v4.65c-2.99.382-5.998.61-9.012.684V.748zm-1.805 44.685h-.155v1.522l-.55.014v-3.994h.55a1.19 1.19 0 01.888.308c.219.24.331.557.31.879.02.331-.08.658-.282.922a.935.935 0 01-.761.349zm.282-1.801a.556.556 0 00-.466-.196l.029 1.536a.525.525 0 00.437-.195.863.863 0 00.155-.545.957.957 0 00-.155-.6zm-4.739-3.561c-1.128 0-2.257-.154-3.385-.252V5.663c-1.41.084-2.919.182-4.372.308V1.502c4.017-.469 8.057-.711 12.101-.726V5.44c-1.448 0-2.896.023-4.344.07v34.561zm-10.704-1.173l-1.086-7.764a193.53 193.53 0 01-5.726-.74c-.358 2.318-.72 4.599-1.086 6.842l-3.061-.824c1.777-10.291 3.568-21.56 5.345-33.513 1.171-.224 2.341-.447 3.526-.643 1.805 11.8 3.611 24.27 5.43 37.158-1.119-.158-2.233-.33-3.342-.516zm-3.964-28.724a2957.82 2957.82 0 01-2.27 16.142l4.598.377a7636.728 7636.728 0 00-2.328-16.519zM7.369 31.441a1.683 1.683 0 001.946-.991 10.807 10.807 0 001.002-4.19 60.768 60.768 0 013.342 1.858 11.096 11.096 0 01-2.129 6.046 3.706 3.706 0 01-4.231.908 7.848 7.848 0 01-4.796-4.706A26.135 26.135 0 01.994 20.354a24.722 24.722 0 011.664-10.013 8.856 8.856 0 015.177-5.082 3.194 3.194 0 013.483.684 9.441 9.441 0 012.116 4.901l-3.301 1.788a6.936 6.936 0 00-.902-3.115 1.502 1.502 0 00-1.721-.684c-1.058.28-1.847 1.397-2.369 3.324a32.458 32.458 0 00-.79 8.155c-.097 2.727.14 5.456.705 8.127.48 1.731 1.241 2.793 2.313 3.002zM26.62 46.508a.227.227 0 00.17 0 .21.21 0 00.211-.125.987.987 0 000-.419V42.92h.536v3.002c.023.279-.047.558-.197.796a.722.722 0 01-.607.265.78.78 0 01-.634-.307l.366-.363c.037.075.09.142.155.195zm7.123-3.533l.874 3.994h-.536l-.183-.824h-.931l-.169.824h-.508l.874-3.994h.579zm.07 2.695l-.381-1.829-.366 1.829h.747zm12.933-2.695l.874 3.994h-.535l-.17-.824h-.931l-.169.824h-.508l.875-3.994h.564zm.085 2.695l-.381-1.829-.367 1.829h.748zm138.856 17.168c10.902 0 18.411 7.843 18.411 21.193 0 13.349-7.509 21.526-18.411 21.526-10.903 0-18.412-8.177-18.412-21.526 0-13.406 7.509-21.193 18.412-21.193zm0 35.599c6.118 0 10.012-5.618 10.012-14.406 0-8.845-3.894-14.129-10.012-14.129-6.119 0-10.013 5.284-10.013 14.129 0 8.788 3.894 14.406 10.013 14.406z"/>
</svg>