<?xml version="1.0" encoding="UTF-8"?><svg xmlns="http://www.w3.org/2000/svg" viewBox="0 0 37.32 53.05"><defs><style>.d{stroke-miterlimit:10;}.d,.e{fill:none;stroke:#000;stroke-linecap:round;stroke-width:3px;}.e{stroke-linejoin:round;}</style></defs><g id="a"/><g id="b"><g id="c"><g><path class="d" d="M18.66,1.5h0C9.32,1.5,1.74,9.08,1.74,18.42c0,6.31,3.03,10.06,6.55,13.81,2.24,2.31,4.15,4.15,5.51,6.31,1.44,2.16,1.6,5.75,4.79,5.75h0c3.19,0,3.35-3.51,4.79-5.75,1.44-2.16,3.35-3.99,5.51-6.31,3.51-3.75,6.55-7.5,6.55-13.81,.16-9.26-7.42-16.84-16.76-16.92Zm0,23.31c-3.51,0-6.31-2.79-6.31-6.31s2.79-6.31,6.31-6.31,6.31,2.79,6.31,6.31c-.08,3.43-2.87,6.31-6.31,6.31Z"/><polyline class="e" points="9.56 42.37 3.74 42.37 1.5 51.55 35.82 51.55 33.51 42.37 27.68 42.37"/></g></g></g></svg>