<?xml version="1.0" encoding="UTF-8"?><svg xmlns="http://www.w3.org/2000/svg" viewBox="0 0 53.34 45.88"><defs><style>.d{fill:none;stroke:#000;stroke-linecap:round;stroke-miterlimit:10;stroke-width:3px;}</style></defs><g id="a"/><g id="b"><g id="c"><rect class="d" x="1.5" y="5.58" width="50.34" height="38.79"/><line class="d" x1="1.5" y1="12.66" x2="51.84" y2="12.66"/><line class="d" x1="16.72" y1="8.81" x2="16.72" y2="1.5"/><line class="d" x1="36.62" y1="8.81" x2="36.62" y2="1.5"/><g><line class="d" x1="9.96" y1="21.81" x2="14.95" y2="21.81"/><line class="d" x1="19.44" y1="21.81" x2="24.43" y2="21.81"/><line class="d" x1="28.91" y1="21.81" x2="33.9" y2="21.81"/><line class="d" x1="38.39" y1="21.81" x2="43.38" y2="21.81"/></g><g><line class="d" x1="9.96" y1="28.43" x2="14.95" y2="28.43"/><line class="d" x1="19.44" y1="28.43" x2="24.43" y2="28.43"/><line class="d" x1="28.91" y1="28.43" x2="33.9" y2="28.43"/><line class="d" x1="38.39" y1="28.43" x2="43.38" y2="28.43"/></g><g><line class="d" x1="9.96" y1="35.05" x2="14.95" y2="35.05"/><line class="d" x1="19.44" y1="35.05" x2="24.43" y2="35.05"/><line class="d" x1="28.91" y1="35.05" x2="33.9" y2="35.05"/><line class="d" x1="38.39" y1="35.05" x2="43.38" y2="35.05"/></g></g></g></svg>