<?xml version="1.0" encoding="UTF-8"?><svg xmlns="http://www.w3.org/2000/svg" viewBox="0 0 37.49 49.13"><defs><style>.d{fill:none;stroke:#000;stroke-linecap:round;stroke-linejoin:round;stroke-width:2px;}</style></defs><g id="a"/><g id="b"><g id="c"><g><path class="d" d="M9.66,17.58c1.12,2.51-.85,5.02-3.36,4.74-1.4-.15-2.58-1.24-2.85-2.62-.49-2.48,1.84-4.65,4.43-3.76,.79,.27,1.44,.87,1.78,1.63Z"/><path class="d" d="M1,36.3v-7.16c0-1.87,.21-4.15,3.22-4.15h6.75l3.22,4.02,3.63-3.53"/><polyline class="d" points="4.01 34.02 4.01 48.13 7.02 48.13"/><polyline class="d" points="10.34 34.02 10.34 48.13 7.33 48.13"/><line class="d" x1="7.01" y1="37.55" x2="7.01" y2="48.13"/><path class="d" d="M23.24,3.44c-1.48,3.33,1.13,6.65,4.45,6.28,1.85-.2,3.42-1.64,3.78-3.47,.65-3.28-2.43-6.16-5.87-4.98-1.04,.36-1.91,1.16-2.36,2.16Z"/><path class="d" d="M36.49,28.21s-1.87-9.44-2.28-11.1c-.42-1.66-1.14-4.15-4.25-4.15h-5.4c-3.11,0-3.84,2.49-4.25,4.15s-2.28,11.1-2.28,11.1"/><polyline class="d" points="21.34 26.76 19.37 37.34 23.31 37.34 23.31 47.3 26.74 47.3"/><polyline class="d" points="33.38 26.76 35.35 37.34 31.41 37.34 31.41 47.3 27.26 47.3 27.26 32.57"/></g></g></g></svg>