<?xml version="1.0" encoding="UTF-8"?><svg xmlns="http://www.w3.org/2000/svg" xmlns:xlink="http://www.w3.org/1999/xlink" viewBox="0 0 331.85 331.85"><defs><style>.e{fill:none;}.f{clip-path:url(#d);}</style><clipPath id="d"><circle class="e" cx="165.93" cy="165.93" r="165.93"/></clipPath></defs><g id="a"/><g id="b"><g id="c"><g class="f"><g><path d="M165.92,143.01c-12.66,0-22.93,10.26-22.93,22.92s10.27,22.93,22.93,22.93,22.92-10.26,22.92-22.93-10.26-22.92-22.92-22.92Z"/><path d="M145.11,49.4c-32.39,5.73-60.23,24.62-77.78,50.96l8.93,5.96c15.97-23.96,41.28-41.13,70.72-46.35l-1.87-10.56Z"/><path d="M152.28,89.2l-.61-3.17-.4-2.09-1.01-5.28c-24.07,4.6-44.74,18.7-57.93,38.29l4.45,3,1.78,1.2,2.68,1.8c11.63-17.26,29.85-29.69,51.04-33.75Z"/><path d="M242.8,217.06l-2.68-1.78-1.79-1.18-4.49-2.96c-11.98,18.17-31.21,31.06-53.57,34.73l.86,5.29,.35,2.11,.51,3.19c25.39-4.16,47.21-18.79,60.8-39.41Z"/><path d="M255.58,225.56c-15.97,23.96-41.28,41.13-70.72,46.35l1.87,10.56c32.39-5.73,60.22-24.62,77.78-50.96l-8.93-5.96Z"/><path d="M222.05,165.93c0-31-25.14-56.13-56.13-56.13s-56.12,25.14-56.14,56.13c.02,31,25.15,56.13,56.14,56.13s56.12-25.14,56.13-56.13Zm-56.13,42.73c-11.81,0-22.47-4.76-30.23-12.51-7.73-7.75-12.51-18.42-12.51-30.22s4.78-22.47,12.51-30.22c7.76-7.74,18.42-12.52,30.23-12.52,11.82,0,22.47,4.78,30.21,12.52,7.74,7.75,12.52,18.41,12.53,30.22,0,11.8-4.8,22.47-12.53,30.22-7.74,7.74-18.4,12.51-30.21,12.51Z"/><path d="M212.72,6.75V-112.04L-93.61-180.11l-76.58,68.07V279.39h57.22V-135.44l19.36-23.4V279.39H44.83c30.3,32.33,73.35,52.5,121.09,52.5,91.64,0,165.93-74.28,165.93-165.93,0-75.39-50.29-139.04-119.13-159.21ZM-17.73-95.44l174.44,28.08V-12.05L-17.73-31.2V-95.44h0ZM262.07,262.11c-24.67,24.6-58.54,39.83-96.15,39.83s-71.48-15.23-96.15-39.83c-2.21-2.21-4.25-4.5-6.3-6.81-18.38-21.1-30.38-47.82-33.01-77.35-.34-3.91-.52-7.91-.52-12,0-37.61,15.23-71.48,39.83-96.15,24.67-24.59,58.54-39.82,96.15-39.82,16.42,0,32.17,2.89,46.8,8.25,18.72,6.89,35.48,17.7,49.35,31.57,24.6,24.67,39.83,58.54,39.83,96.15s-15.23,71.48-39.83,96.15Z"/></g></g></g></g></svg>