<?xml version="1.0" encoding="UTF-8"?><svg xmlns="http://www.w3.org/2000/svg" viewBox="0 0 36.08 41.96"><defs><style>.d{fill:#fff;}.e{fill:#185abb;}.f{fill:#2a65bc;}</style></defs><g id="a"/><g id="b"><g id="c"><rect class="e" y="20.13" width="24.27" height="11.32" rx="1.89" ry="1.89"/><path class="f" d="M36,12.17L24.29,.04l-17.47-.04c-2.11,0-3.83,1.72-3.83,3.83v12.61h2V3.83c0-1.01,.82-1.83,1.83-1.83l16.5,.04V11.6c0,.78,.64,1.42,1.42,1.42h9.26l.08,25.1c0,1.01-.82,1.83-1.83,1.83H6.82c-1.01,0-1.83-.82-1.83-1.83v-3.06H2.99v3.06c0,2.11,1.72,3.83,3.83,3.83h25.42c2.11,0,3.83-1.72,3.83-3.84l-.08-25.95Z"/><g><path class="d" d="M3.47,29.19v-6.76h2.28c1.52,0,2.54,.81,2.54,2.98v.8c0,2.16-1.02,2.98-2.54,2.98H3.47Zm3.68-2.98v-.8c0-1.39-.43-1.99-1.4-1.99h-1.15v4.79h1.15c.97,0,1.4-.61,1.4-2Z"/><path class="d" d="M12.34,29.27c-1.51,0-2.53-.91-2.53-3.04v-.86c0-2.13,1.02-3.04,2.53-3.04s2.54,.91,2.54,3.04v.86c0,2.12-1.02,3.04-2.54,3.04Zm-1.39-3.04c0,1.46,.49,2.05,1.39,2.05s1.4-.59,1.4-2.05v-.86c0-1.46-.5-2.05-1.4-2.05s-1.39,.59-1.39,2.05v.86Z"/><path class="d" d="M20.29,24.52c-.18-.82-.62-1.2-1.36-1.2-.9,0-1.39,.59-1.39,2.05v.86c0,1.44,.49,2.05,1.39,2.05,.77,0,1.19-.37,1.36-1.2h1.09c-.23,1.52-1.11,2.18-2.45,2.18-1.51,0-2.53-.91-2.53-3.04v-.86c0-2.13,1.02-3.04,2.53-3.04,1.34,0,2.23,.71,2.46,2.18h-1.1Z"/></g></g></g></svg>