<?xml version="1.0" encoding="UTF-8"?><svg xmlns="http://www.w3.org/2000/svg" viewBox="0 0 512 430.59"><g id="a"/><g id="b"><g id="c"><g><path d="M289.38,0C248.47,0,213.12,23.78,196.38,58.27,179.62,23.78,144.27,0,103.36,0,46.27,0,0,46.27,0,103.36s46.27,103.33,103.36,103.33h186.02c57.09,0,103.36-46.25,103.36-103.33S346.47,0,289.38,0ZM103.36,142.44c-21.59,0-39.09-17.52-39.09-39.08s17.5-39.09,39.09-39.09,39.06,17.5,39.06,39.09-17.5,39.08-39.06,39.08Zm186.02,0c-21.58,0-39.06-17.52-39.06-39.08s17.48-39.09,39.06-39.09,39.09,17.5,39.09,39.09-17.5,39.08-39.09,39.08Z"/><path d="M332.12,230.3H53.83c-11.09,0-20.06,8.97-20.06,20.05v160.19c0,11.08,8.97,20.06,20.06,20.06H332.12c11.09,0,20.06-8.98,20.06-20.06V250.34c0-11.08-8.97-20.05-20.06-20.05Z"/><path d="M504.34,265.98c-4.84-3.8-11.17-5.16-17.16-3.72l-97.84,23.84c-9,2.19-15.33,10.25-15.33,19.5v47.48c0,9.25,6.33,17.3,15.33,19.48l97.84,23.86c5.98,1.44,12.31,.08,17.16-3.72,4.83-3.81,7.66-9.62,7.66-15.78v-95.19c0-6.14-2.83-11.95-7.66-15.76Z"/></g></g></g></svg>