<?xml version="1.0" encoding="UTF-8"?><svg xmlns="http://www.w3.org/2000/svg" viewBox="0 0 57.78 55.82"><defs><style>.d{fill:none;stroke:#000;stroke-linecap:round;stroke-miterlimit:10;stroke-width:3px;}</style></defs><g id="a"/><g id="b"><g id="c"><g><path class="d" d="M56.03,21.38l-26.1,14.7c-1.9,1.1-5.1,1.1-7,.1L3.63,25.88c-1.9-1-2.7-3.4-1.7-5.3"/><path class="d" d="M56.03,30.08l-26.1,14.7c-1.9,1.1-5.1,1.1-7,.1L3.63,34.58c-1.9-1-2.7-3.4-1.7-5.3s3.4-2.5,5.3-1.5"/><path class="d" d="M56.03,38.78l-26.1,14.7c-1.9,1.1-5.1,1.1-7,.1L3.63,43.28c-1.9-1-2.7-3.4-1.7-5.3s3.4-2.5,5.3-1.5"/></g><path d="M28.64,28.93c-1.97,1.14-5.17,1.14-7.03,.1L5.16,19.62c-1.76-1.03-1.55-2.69,.31-3.83L30.71,1c1.97-1.14,5.07-1.34,6.93-.41l18.52,8.69c2.17,1.03,2.17,2.9,0,4.03l-27.52,15.62Z"/></g></g></svg>