<?xml version="1.0" encoding="UTF-8"?><svg xmlns="http://www.w3.org/2000/svg" viewBox="0 0 36.08 41.96"><defs><style>.d{fill:#fff;}.e{fill:#da2532;}</style></defs><g id="a"/><g id="b"><g id="c"><rect class="e" y="16.96" width="31.07" height="14.49" rx="2.42" ry="2.42"/><path class="e" d="M36,12.17L24.29,.04l-17.47-.04c-2.11,0-3.83,1.72-3.83,3.83V12.85h2V3.83c0-1.01,.82-1.83,1.83-1.83l16.5,.04V11.6c0,.78,.64,1.42,1.42,1.42h9.26l.08,25.1c0,1.01-.82,1.83-1.84,1.83H6.82c-1.01,0-1.83-.82-1.83-1.83v-3.06h-2v3.06c0,2.11,1.72,3.83,3.83,3.83h25.42c2.11,0,3.84-1.72,3.84-3.84l-.08-25.95Z"/><g><path class="d" d="M3.6,25.68v3.92H1.79v-10.75h3.66c2.48,0,3.96,1.18,3.96,3.4s-1.46,3.43-3.96,3.43h-1.85Zm1.67-1.56c1.65,0,2.34-.64,2.34-1.87,0-1.17-.69-1.82-2.34-1.82h-1.67v3.69h1.67Z"/><path class="d" d="M11.89,29.6v-10.75h3.63c2.41,0,4.03,1.29,4.03,4.73v1.28c0,3.44-1.62,4.73-4.03,4.73h-3.63Zm5.85-4.73v-1.28c0-2.21-.69-3.16-2.23-3.16h-1.82v7.61h1.82c1.54,0,2.23-.97,2.23-3.18Z"/><path class="d" d="M29,18.85v1.57h-4.78v3.08h4.31v1.56h-4.31v4.53h-1.81v-10.75h6.59Z"/></g></g></g></svg>