<?xml version="1.0" encoding="UTF-8"?><svg xmlns="http://www.w3.org/2000/svg" viewBox="0 0 512 390"><defs><style>.d{fill:#4b4b4b;}</style></defs><g id="a"/><g id="b"><g id="c"><path class="d" d="M482.7,37.81C456.47,16.62,363.95,0,256,0S55.53,16.62,29.3,37.81C5.19,57.25,0,145.12,0,195s5.19,137.75,29.3,157.19c26.23,21.19,118.75,37.81,226.7,37.81s200.47-16.62,226.7-37.81c24.11-19.44,29.3-107.31,29.3-157.19s-5.19-137.75-29.3-157.19Zm-149.89,159.59l-118.84,70.94c-.88,.5-1.94,.53-2.81,.03s-1.42-1.44-1.42-2.44V124.06c0-1.02,.55-1.94,1.42-2.44s1.94-.47,2.81,.03l118.84,70.94c.84,.5,1.36,1.41,1.36,2.41s-.52,1.91-1.36,2.41Z"/></g></g></svg>