<?xml version="1.0" encoding="UTF-8"?><svg xmlns="http://www.w3.org/2000/svg" viewBox="0 0 362.56 512"><g id="a"/><g id="b"><g id="c"><path d="M312.47,68.12c-4.23,0-8.33,.52-12.25,1.51v-14.19c0-27.62-22.47-50.09-50.09-50.09-10.29,0-19.86,3.12-27.83,8.46C213.3,5.25,201.15,0,187.79,0c-22.84,0-42.16,15.36-48.16,36.3-5.27-1.89-10.93-2.91-16.84-2.91-27.62,0-50.09,22.47-50.09,50.09v82.98c-6-2.33-12.51-3.62-19.32-3.62-29.43,0-53.37,23.94-53.37,53.37v99.69c0,63.3,38.53,185.64,184.31,195.65,4.27,.29,8.59,.44,12.81,.44,91.22,0,165.43-72.38,165.43-161.35V118.21c0-27.62-22.47-50.09-50.09-50.09Zm-115.34,415.83c-3.58,0-7.21-.13-10.9-.38C51.57,474.33,28.05,356.9,28.05,315.91v-99.7c0-13.98,11.34-25.31,25.32-25.31s25.32,11.33,25.32,25.31v77h22.05V83.49c0-12.17,9.87-22.04,22.04-22.04s22.04,9.87,22.04,22.04V236.44h20.92V50.09c0-12.17,9.87-22.04,22.04-22.04s22.04,9.87,22.04,22.04V236.44h18.25V55.44c0-12.17,9.87-22.04,22.04-22.04s22.04,9.87,22.04,22.04V236.44h18.26V118.21c0-12.17,9.87-22.04,22.04-22.04s22.04,9.87,22.04,22.04v232.44c0,69.1-55.78,133.3-137.38,133.3Z"/></g></g></svg>