<?xml version="1.0" encoding="UTF-8"?><svg xmlns="http://www.w3.org/2000/svg" viewBox="0 0 324.12 336.59"><g id="a"/><g id="b"><g id="c"><path d="M132.66,76.22c-20.48-20.46-39.93-39.89-59.37-59.31,5.63-5.46,11.2-10.87,16.78-16.28,23.49,23.5,47.34,47.35,71.04,71.06C185.49,47.31,209.14,23.65,232.78,0c5.9,6.13,11.27,11.72,16.66,17.32-19.16,19.16-38.84,38.85-58.53,58.53,.27,.45,.53,.91,.8,1.36,1.75,0,3.5,0,5.25,0,33.16,0,66.32-.01,99.49,0,11.73,0,25.63,12.65,26.59,24.34,.55,6.75,.98,13.53,.99,20.29,.08,50-.05,100.01,.09,150.01,.06,19.87-16.47,33.51-32.67,32.54-10.13-.6-20.32-.04-30.49-.16-2.41-.03-3.65,.66-4.93,2.88-4.82,8.34-10.02,16.45-15.1,24.64-3.97,6.41-11.82,6.43-15.73-.02-4.83-7.96-9.52-15.99-14.34-23.95-1.38-2.28-2.99-3.64-6.21-3.62-29.49,.2-58.99,.14-88.49,.07-2.74,0-4.42,.63-5.92,3.22-4.26,7.34-9.09,14.34-13.48,21.61-6.25,10.37-12.48,9.54-18.65,.31-4.99-7.46-9.31-15.37-14.18-22.91-.76-1.18-2.86-2.07-4.36-2.1-9.66-.19-19.34-.35-28.99-.03-13.12,.44-28.36-11.74-29.58-25.26-.33-3.6-.93-7.19-.93-10.79C.01,215.14,.09,161.97,0,108.8c-.03-18.6,14.02-32.66,32.54-32.61,31.33,.1,62.66,.03,93.99,.03,1.6,0,3.21,0,6.13,0Z"/></g></g></svg>