<?xml version="1.0" encoding="UTF-8"?><svg xmlns="http://www.w3.org/2000/svg" viewBox="0 0 36.08 41.96"><defs><style>.d{fill:#fff;}.e{fill:#127e42;}</style></defs><g id="a"/><g id="b"><g id="c"><path class="e" d="M0,22.02c0-1.04,.85-1.89,1.89-1.89H22.38c1.04,0,1.89,.85,1.89,1.89v7.53c0,1.04-.85,1.89-1.89,1.89H1.89c-1.04,0-1.89-.85-1.89-1.89"/><path class="e" d="M32.24,41.96H6.82c-2.11,0-3.83-1.72-3.83-3.83v-3.06h2v3.06c0,1.01,.82,1.83,1.83,1.83h25.42c1.01,0,1.83-.82,1.83-1.83l-.08-25.14L23.44,2.04l-16.62-.04c-1.01,0-1.83,.82-1.83,1.83v12.61H2.99V3.83C2.99,1.72,4.71,0,6.82,0L24.29,.04l11.71,12.13,.08,25.95c0,2.12-1.72,3.84-3.83,3.84Z"/><path class="e" d="M34.85,12.02c.55,.55,.36,1-.42,1h-9.69c-.78,0-1.42-.64-1.42-1.42V1.91c0-.78,.45-.97,1-.42l10.52,10.52Z"/><g><path class="d" d="M3.99,29.19l1.95-3.49-1.74-3.27h1.24l1.21,2.31,1.21-2.31h1.23l-1.75,3.27,1.96,3.49h-1.23l-1.42-2.46-1.41,2.46h-1.24Z"/><path class="d" d="M11.92,28.21h3.01v.98h-4.14v-6.76h1.14v5.78Z"/><path class="d" d="M19.81,24.06c-.33-.46-.7-.74-1.46-.74-.7,0-1.11,.31-1.11,.88,0,.65,.51,.9,1.45,1.11,1.36,.29,2.07,.8,2.07,2.02,0,1.01-.68,1.94-2.3,1.94-1.16,0-1.97-.35-2.53-1.11l.89-.62c.4,.48,.8,.73,1.58,.73,.93,0,1.22-.41,1.22-.9,0-.54-.3-.87-1.48-1.13-1.3-.27-2.04-.9-2.04-2.05,0-1.02,.67-1.87,2.25-1.87,1.08,0,1.83,.36,2.31,1.11l-.86,.62Z"/></g></g></g></svg>